<?xml version="1.0" standalone="no"?>
<!DOCTYPE svg PUBLIC "-//W3C//DTD SVG 20010904//EN"
 "http://www.w3.org/TR/2001/REC-SVG-20010904/DTD/svg10.dtd">
<svg version="1.0" xmlns="http://www.w3.org/2000/svg"
 width="512.000000pt" height="512.000000pt" viewBox="0 0 512.000000 512.000000"
 preserveAspectRatio="xMidYMid meet">
<metadata>
Created by potrace 1.11, written by Peter Selinger 2001-2013
</metadata>
<g transform="translate(0.000000,512.000000) scale(0.100000,-0.100000)"
fill="#000000" stroke="none">
<path d="M2236 5104 c-347 -46 -718 -177 -1016 -358 -334 -204 -662 -535 -860
-868 -166 -279 -283 -604 -335 -928 -26 -160 -31 -521 -11 -690 44 -362 172
-731 360 -1040 204 -334 535 -662 868 -860 279 -166 604 -283 928 -335 160
-26 521 -31 690 -11 362 44 731 172 1040 360 334 204 662 535 860 868 166 279
283 604 335 928 26 160 31 521 11 690 -44 362 -172 731 -360 1040 -204 334
-535 662 -868 860 -279 166 -603 283 -928 335 -146 24 -565 29 -714 9z m505
-504 c721 -70 1337 -493 1655 -1135 238 -482 277 -1032 109 -1543 -205 -620
-686 -1102 -1306 -1306 -420 -138 -858 -138 -1278 0 -526 173 -951 542 -1197
1039 -394 798 -226 1763 416 2379 229 219 482 372 782 470 271 90 550 122 819
96z"/>
<path d="M2345 4029 c-331 -51 -623 -203 -856 -447 -196 -204 -322 -444 -385
-732 -27 -122 -27 -458 0 -580 66 -305 193 -538 410 -756 218 -217 451 -344
756 -410 122 -27 458 -27 580 0 305 66 538 193 756 410 217 218 344 451 410
756 27 122 27 458 0 580 -66 305 -193 538 -410 756 -214 213 -437 336 -735
406 -99 22 -423 34 -526 17z m392 -585 c185 -38 316 -109 454 -244 182 -179
269 -387 269 -641 0 -248 -84 -452 -260 -630 -180 -182 -387 -269 -640 -269
-253 0 -453 84 -635 265 -181 182 -265 382 -265 635 0 253 83 453 265 635 137
137 277 214 455 250 92 18 266 18 357 -1z"/>
<path d="M2445 2946 c-115 -37 -199 -110 -248 -214 -30 -62 -32 -75 -32 -172
0 -97 2 -110 32 -172 40 -85 106 -151 191 -191 62 -30 75 -32 172 -32 97 0
110 2 170 31 86 41 153 108 193 192 30 62 32 75 32 172 0 97 -2 110 -32 172
-40 85 -106 151 -191 191 -58 28 -79 32 -157 34 -54 2 -106 -3 -130 -11z"/>
</g>
</svg>
